<svg xmlns="http://www.w3.org/2000/svg" width="820" height="1060" viewBox="0 0 820 1060" font-family="Helvetica, Arial, sans-serif">
  <rect width="820" height="1060" fill="#f4f5f3"/>
  <rect x="30" y="28" width="760" height="1004" rx="6" fill="#ffffff" stroke="#d8ddd6"/>

  <!-- header -->
  <rect x="30" y="28" width="760" height="74" rx="6" fill="#0a7d44"/>
  <rect x="30" y="70" width="760" height="32" fill="#0a7d44"/>
  <text x="58" y="76" fill="#ffffff" font-size="30" font-weight="bold" letter-spacing="2">BASF</text>
  <text x="58" y="94" fill="#cdecd9" font-size="11">We create chemistry</text>
  <text x="762" y="64" fill="#ffffff" font-size="18" font-weight="bold" text-anchor="end">PACKING LIST</text>
  <text x="762" y="84" fill="#cdecd9" font-size="12" text-anchor="end">装 箱 单</text>

  <!-- meta grid -->
  <g font-size="12.5" fill="#33403a">
    <text x="58" y="146" fill="#7a877f" font-size="10.5">PO NUMBER</text>
    <text x="58" y="166" font-size="18" font-weight="bold" fill="#16201b">45009281</text>
    <text x="300" y="146" fill="#7a877f" font-size="10.5">DELIVERY NOTE</text>
    <text x="300" y="166" font-size="15" font-weight="bold">DN-77418</text>
    <text x="560" y="146" fill="#7a877f" font-size="10.5">SHIP DATE</text>
    <text x="560" y="166" font-size="15" font-weight="bold">2026-06-17</text>

    <text x="58" y="206" fill="#7a877f" font-size="10.5">SUPPLIER</text>
    <text x="58" y="224" font-weight="bold">BASF SE · Ludwigshafen</text>
    <text x="300" y="206" fill="#7a877f" font-size="10.5">CARRIER</text>
    <text x="300" y="224" font-weight="bold">DB Schenker · TRK-4471</text>
    <text x="560" y="206" fill="#7a877f" font-size="10.5">INCOTERMS</text>
    <text x="560" y="224" font-weight="bold">DAP Heidelberg</text>

    <text x="58" y="262" fill="#7a877f" font-size="10.5">SHIP TO</text>
    <text x="58" y="280" font-weight="bold">Heidelberg Plant · Goods-in Dock 3</text>
    <text x="58" y="298" fill="#5a665f" font-size="11.5">Industriestrasse 12, 69115 Heidelberg, DE</text>
  </g>

  <line x1="58" y1="320" x2="762" y2="320" stroke="#e2e7e0"/>

  <!-- line items table -->
  <g font-size="12">
    <rect x="58" y="334" width="704" height="30" fill="#eef3ee"/>
    <text x="70"  y="354" fill="#5a665f" font-size="10.5" font-weight="bold">#</text>
    <text x="108" y="354" fill="#5a665f" font-size="10.5" font-weight="bold">MATERIAL</text>
    <text x="250" y="354" fill="#5a665f" font-size="10.5" font-weight="bold">DESCRIPTION</text>
    <text x="500" y="354" fill="#5a665f" font-size="10.5" font-weight="bold">LOT</text>
    <text x="640" y="354" fill="#5a665f" font-size="10.5" font-weight="bold" text-anchor="end">QTY</text>
    <text x="752" y="354" fill="#5a665f" font-size="10.5" font-weight="bold" text-anchor="end">UNIT</text>

    <text x="70"  y="392" fill="#16201b">10</text>
    <text x="108" y="392" fill="#16201b" font-weight="bold">RES-ADD-220</text>
    <text x="250" y="392" fill="#16201b">Resin additive</text>
    <text x="500" y="392" fill="#16201b">LOT-2026-0617</text>
    <text x="640" y="392" fill="#16201b" font-weight="bold" text-anchor="end">42</text>
    <text x="752" y="392" fill="#16201b" text-anchor="end">cartons</text>
    <line x1="58" y1="410" x2="762" y2="410" stroke="#eceee9"/>
    <text x="250" y="432" fill="#7a887f" font-size="11">Polymer resin additive, 25 kg / carton · UN3082</text>

    <rect x="58" y="452" width="704" height="34" fill="#f6f9f6"/>
    <text x="500" y="474" fill="#5a665f" font-size="11" font-weight="bold">TOTAL CARTONS</text>
    <text x="640" y="474" fill="#0a7d44" font-size="16" font-weight="bold" text-anchor="end">42</text>
    <text x="752" y="474" fill="#16201b" text-anchor="end" font-size="11">cartons</text>
  </g>

  <!-- enclosed documents -->
  <text x="58" y="540" fill="#7a877f" font-size="10.5" font-weight="bold">ENCLOSED DOCUMENTS</text>
  <g font-size="13" fill="#16201b">
    <rect x="58" y="554" width="18" height="18" rx="3" fill="#0a7d44"/>
    <path d="M62 563 l4 4 l7 -8" stroke="#ffffff" stroke-width="2.4" fill="none"/>
    <text x="86" y="568">Packing list</text>

    <rect x="58" y="584" width="18" height="18" rx="3" fill="#0a7d44"/>
    <path d="M62 593 l4 4 l7 -8" stroke="#ffffff" stroke-width="2.4" fill="none"/>
    <text x="86" y="598">Certificate of Analysis (CoA)</text>

    <rect x="58" y="614" width="18" height="18" rx="3" fill="#ffffff" stroke="#c2632e" stroke-width="1.6"/>
    <text x="86" y="628" fill="#7a807b">Batch certificate</text>
    <text x="250" y="628" fill="#c2632e" font-size="11.5" font-style="italic">— not enclosed</text>
  </g>

  <!-- footer -->
  <line x1="58" y1="930" x2="762" y2="930" stroke="#e2e7e0"/>
  <text x="58" y="958" fill="#7a877f" font-size="10.5">Packed by</text>
  <text x="58" y="978" fill="#16201b" font-size="12.5">A. Brenner · BASF Logistics</text>
  <text x="560" y="958" fill="#7a877f" font-size="10.5">Page</text>
  <text x="560" y="978" fill="#16201b" font-size="12.5">1 of 1</text>
  <text x="58" y="1014" fill="#aab2ab" font-size="10">Demo evidence · Edge Receiving Control Agent · matches PO 45009281</text>
</svg>
