<svg xmlns="http://www.w3.org/2000/svg" viewBox="0 0 103 104.313"><path d="M64.567 22.116V42.52l7.13 4.49c.188.055.596.059.784 0l30.688-20.69c0-2.449-2.284-4.204-3.573-4.204H64.567z" fill="#0072c6"/><path d="M64.567 50.133l6.508 4.471c.916.674 2.021 0 2.021 0-1.102.674 30.077-20.037 30.077-20.037v37.501c0 4.082-2.613 5.795-5.552 5.795H64.563v-27.73h.004z" fill="#0072c6"/><g fill="#0072c6"><path d="M30.873 40.726c-2.218 0-3.985 1.042-5.29 3.123-1.304 2.08-1.958 4.834-1.958 8.263 0 3.479.654 6.229 1.959 8.25 1.304 2.026 3.016 3.033 5.132 3.033 2.182 0 3.914-.983 5.191-2.95 1.278-1.967 1.92-4.698 1.92-8.188 0-3.64-.619-6.473-1.86-8.498-1.243-2.022-2.94-3.033-5.094-3.033z"/><path d="M0 11.754V91.58l60.727 12.733V0L0 11.754zm40.636 53.408c-2.566 3.377-5.912 5.07-10.041 5.07-4.024 0-7.3-1.638-9.834-4.91-2.531-3.275-3.8-7.537-3.8-12.795 0-5.552 1.285-10.042 3.859-13.47 2.574-3.428 5.982-5.144 10.225-5.144 4.008 0 7.252 1.638 9.724 4.92 2.476 3.284 3.715 7.61 3.715 12.98.003 5.521-1.282 9.972-3.848 13.349z"/></g></svg>
