<svg xmlns="http://www.w3.org/2000/svg" width="820" height="1060" viewBox="0 0 820 1060" font-family="Helvetica, Arial, sans-serif">
  <rect width="820" height="1060" fill="#f4f5f3"/>
  <rect x="30" y="28" width="760" height="1004" rx="6" fill="#ffffff" stroke="#d8ddd6"/>

  <!-- header -->
  <rect x="30" y="28" width="760" height="74" rx="6" fill="#0a7d44"/>
  <rect x="30" y="70" width="760" height="32" fill="#0a7d44"/>
  <text x="58" y="76" fill="#ffffff" font-size="30" font-weight="bold" letter-spacing="2">BASF</text>
  <text x="58" y="94" fill="#cdecd9" font-size="11">We create chemistry</text>
  <text x="762" y="64" fill="#ffffff" font-size="18" font-weight="bold" text-anchor="end">SUPPLIER INVOICE</text>
  <text x="762" y="84" fill="#cdecd9" font-size="12" text-anchor="end">商 业 发 票</text>

  <!-- meta -->
  <g font-size="12.5" fill="#33403a">
    <text x="58" y="146" fill="#7a877f" font-size="10.5">INVOICE NO</text>
    <text x="58" y="166" font-size="18" font-weight="bold" fill="#16201b">INV-BASF-77418</text>
    <text x="320" y="146" fill="#7a877f" font-size="10.5">PO NUMBER</text>
    <text x="320" y="166" font-size="18" font-weight="bold" fill="#16201b">45009281</text>
    <text x="580" y="146" fill="#7a877f" font-size="10.5">INVOICE DATE</text>
    <text x="580" y="166" font-size="15" font-weight="bold">2026-06-18</text>

    <text x="58" y="206" fill="#7a877f" font-size="10.5">SUPPLIER</text>
    <text x="58" y="224" font-weight="bold">BASF SE · Ludwigshafen</text>
    <text x="320" y="206" fill="#7a877f" font-size="10.5">BILL TO</text>
    <text x="320" y="224" font-weight="bold">Heidelberg Plant · Accounts Payable</text>
    <text x="580" y="206" fill="#7a877f" font-size="10.5">PAYMENT TERMS</text>
    <text x="580" y="224" font-weight="bold">Net 30</text>
  </g>

  <line x1="58" y1="252" x2="762" y2="252" stroke="#e2e7e0"/>

  <!-- line items -->
  <g font-size="12">
    <rect x="58" y="266" width="704" height="30" fill="#eef3ee"/>
    <text x="70"  y="286" fill="#5a665f" font-size="10.5" font-weight="bold">#</text>
    <text x="108" y="286" fill="#5a665f" font-size="10.5" font-weight="bold">MATERIAL</text>
    <text x="240" y="286" fill="#5a665f" font-size="10.5" font-weight="bold">DESCRIPTION</text>
    <text x="500" y="286" fill="#5a665f" font-size="10.5" font-weight="bold" text-anchor="end">QTY</text>
    <text x="630" y="286" fill="#5a665f" font-size="10.5" font-weight="bold" text-anchor="end">UNIT PRICE</text>
    <text x="752" y="286" fill="#5a665f" font-size="10.5" font-weight="bold" text-anchor="end">AMOUNT</text>

    <text x="70"  y="324" fill="#16201b">10</text>
    <text x="108" y="324" fill="#16201b" font-weight="bold">RES-ADD-220</text>
    <text x="240" y="324" fill="#16201b">Resin additive · 42 cartons</text>
    <text x="500" y="324" fill="#16201b" text-anchor="end">42</text>
    <text x="630" y="324" fill="#16201b" text-anchor="end">421.00</text>
    <text x="752" y="324" fill="#16201b" text-anchor="end">17,682.00</text>
    <line x1="58" y1="342" x2="762" y2="342" stroke="#eceee9"/>
  </g>

  <!-- clearly-labelled summary (for IDP) -->
  <g font-size="13" fill="#16201b">
    <text x="500" y="392" fill="#7a877f" font-size="12">Quantity</text>
    <text x="752" y="392" text-anchor="end" font-weight="bold">42 cartons</text>
    <text x="500" y="418" fill="#7a877f" font-size="12">Unit price</text>
    <text x="752" y="418" text-anchor="end" font-weight="bold">USD 421.00</text>
    <text x="500" y="444" fill="#7a877f" font-size="12">Subtotal</text>
    <text x="752" y="444" text-anchor="end">USD 17,682.00</text>
    <text x="500" y="470" fill="#7a877f" font-size="12">Tax</text>
    <text x="752" y="470" text-anchor="end">USD 0.00</text>
    <rect x="494" y="486" width="268" height="34" fill="#eef3ee"/>
    <text x="500" y="508" fill="#0a7d44" font-size="13" font-weight="bold">Total due</text>
    <text x="752" y="508" text-anchor="end" fill="#0a7d44" font-size="15" font-weight="bold">USD 17,682.00</text>
  </g>

  <!-- bank -->
  <text x="58" y="392" fill="#7a877f" font-size="10.5">REMIT TO</text>
  <text x="58" y="412" fill="#16201b" font-size="12.5">Deutsche Bank · IBAN DE89 3704 0044 0532 0130 00</text>
  <text x="58" y="430" fill="#5a665f" font-size="11.5">BIC DEUTDEDB · ref INV-BASF-77418</text>

  <line x1="58" y1="930" x2="762" y2="930" stroke="#e2e7e0"/>
  <text x="58" y="958" fill="#7a877f" font-size="10.5">Issued by</text>
  <text x="58" y="978" fill="#16201b" font-size="12.5">BASF SE · Accounts Receivable</text>
  <text x="58" y="1014" fill="#aab2ab" font-size="10">Demo evidence · supplier invoice for PO 45009281</text>
</svg>
